<?xml version="1.0" standalone="no"?>
<!DOCTYPE svg PUBLIC "-//W3C//DTD SVG 20010904//EN"
 "http://www.w3.org/TR/2001/REC-SVG-20010904/DTD/svg10.dtd">
<svg version="1.0" xmlns="http://www.w3.org/2000/svg"
 width="1140.000000pt" height="1331.000000pt" viewBox="0 0 1140.000000 1331.000000"
 preserveAspectRatio="xMidYMid meet">

<g transform="translate(0.000000,1331.000000) scale(0.100000,-0.100000)"
fill="#000000" stroke="none">
<path d="M5570 11003 c0 -6 -10 -8 -22 -6 -13 2 -34 -1 -48 -7 -23 -10 -23
-10 -2 -6 19 4 21 2 11 -10 -6 -8 -23 -14 -38 -15 -20 0 -22 -2 -9 -7 16 -6
16 -10 4 -34 -8 -15 -17 -41 -21 -58 -4 -17 -13 -43 -21 -58 -8 -15 -14 -33
-14 -41 0 -30 -157 -280 -195 -311 -10 -8 -36 -37 -58 -65 -80 -102 -240 -274
-298 -320 -32 -27 -59 -55 -59 -64 0 -9 9 -27 20 -41 42 -53 20 -94 -74 -139
-47 -23 -50 -23 -62 -6 -7 10 -11 22 -7 28 3 5 -1 13 -8 18 -10 6 -10 9 -2 9
7 0 15 16 19 35 4 21 13 37 25 40 30 10 23 54 -16 112 -19 29 -35 58 -35 66 0
7 -5 18 -10 23 -13 13 6 74 28 92 9 6 12 12 7 12 -5 0 -4 5 3 12 7 7 12 21 12
31 0 10 8 31 19 45 34 50 41 69 26 69 -8 0 -12 -4 -9 -9 3 -5 -1 -17 -9 -26
-45 -52 -124 -276 -153 -433 -22 -122 -22 -423 0 -799 20 -349 20 -495 -1
-629 -9 -58 -16 -116 -16 -128 1 -13 -3 -23 -9 -23 -5 0 -7 -4 -3 -9 3 -5 1
-12 -4 -15 -5 -3 -7 -15 -4 -26 3 -11 0 -20 -6 -20 -5 0 -8 -7 -5 -15 4 -8 1
-15 -5 -15 -9 0 -9 -5 0 -21 7 -13 7 -19 1 -15 -13 8 -26 -29 -16 -45 4 -7 3
-9 -3 -6 -5 4 -21 -23 -36 -58 -26 -68 -27 -89 -1 -32 10 22 13 24 9 7 -4 -14
-7 -33 -8 -42 -1 -9 -4 -15 -7 -13 -3 2 -14 -17 -24 -41 -10 -24 -22 -44 -26
-44 -5 0 1 18 12 41 10 22 18 43 15 45 -8 9 -49 -95 -42 -107 6 -8 4 -10 -5
-4 -10 6 -12 4 -7 -9 4 -10 3 -15 -3 -11 -9 6 -14 -8 -11 -27 0 -5 -4 -8 -10
-8 -5 0 -7 -4 -4 -10 3 -5 1 -10 -6 -10 -6 0 -9 -8 -6 -20 3 -11 2 -18 -2 -15
-11 6 -43 -64 -35 -77 4 -6 2 -8 -3 -5 -6 4 -24 -19 -42 -51 -17 -31 -41 -73
-53 -91 -15 -23 -17 -32 -8 -27 8 4 7 1 -2 -7 -10 -8 -15 -17 -11 -20 3 -4 1
-7 -6 -7 -7 0 -9 -4 -6 -10 3 -5 1 -10 -4 -10 -6 0 -17 -15 -25 -32 -8 -18
-31 -61 -51 -96 -19 -35 -31 -61 -25 -57 7 4 4 -7 -4 -24 -9 -17 -25 -35 -36
-41 -19 -10 -61 -80 -66 -109 -2 -8 -7 -17 -11 -20 -18 -12 -53 -83 -47 -93 4
-6 3 -8 -3 -5 -12 8 -75 -101 -66 -115 3 -6 2 -8 -3 -5 -6 3 -16 -3 -23 -15
-10 -16 -10 -19 1 -13 7 3 5 0 -4 -8 -10 -8 -18 -19 -18 -26 0 -6 -4 -11 -10
-11 -5 0 -10 -7 -10 -16 0 -9 5 -12 12 -8 7 5 8 3 4 -5 -5 -7 -10 -10 -13 -7
-13 12 -58 -67 -48 -84 3 -5 0 -12 -6 -16 -8 -4 -9 -3 -5 4 4 7 4 12 -1 12
-13 0 -44 -61 -36 -73 3 -7 2 -9 -2 -4 -11 9 -66 -83 -58 -98 4 -5 2 -7 -2 -2
-11 10 -67 -101 -59 -115 5 -7 2 -8 -6 -3 -10 6 -12 4 -7 -7 3 -9 -1 -24 -9
-35 -14 -17 -14 -16 -4 5 6 12 8 22 6 22 -7 0 -37 -58 -34 -67 0 -4 -5 -21
-12 -38 -7 -16 -14 -32 -15 -35 -6 -20 -29 -60 -35 -60 -4 0 -7 -6 -8 -12 -1
-19 -7 -39 -21 -73 -7 -16 -22 -55 -33 -85 -11 -30 -24 -59 -29 -65 -5 -5 -9
-16 -9 -26 0 -9 -9 -28 -20 -42 -13 -16 -16 -27 -9 -29 8 -3 4 -18 -10 -46
-11 -22 -21 -50 -21 -61 0 -11 -4 -22 -10 -26 -5 -3 -6 -13 -3 -21 3 -8 -2
-43 -10 -77 -24 -89 -36 -258 -26 -357 4 -47 8 -98 9 -115 1 -51 10 -56 64
-40 100 30 163 12 252 -72 28 -27 42 -42 32 -34 -41 31 -24 1 33 -60 33 -35
62 -70 63 -77 1 -6 16 -27 32 -45 48 -51 94 -114 94 -128 1 -19 25 -49 39 -49
6 0 11 -7 11 -16 0 -8 15 -36 32 -61 36 -50 67 -100 113 -181 17 -29 52 -90
78 -135 27 -45 81 -143 119 -217 39 -74 80 -145 91 -157 11 -13 17 -23 12 -23
-4 0 -1 -8 7 -17 9 -10 48 -79 88 -153 39 -74 78 -142 86 -151 8 -8 14 -20 14
-26 0 -6 10 -32 21 -59 12 -27 30 -69 41 -94 11 -25 30 -67 43 -95 67 -143 71
-354 10 -487 -24 -52 -111 -147 -167 -181 -14 -9 -57 -21 -94 -27 -37 -6 -76
-16 -87 -21 -19 -11 -54 -9 -227 11 -103 12 -117 14 -140 23 -8 3 -51 13 -95
23 -44 10 -108 28 -143 40 -35 12 -72 20 -83 17 -10 -3 -26 0 -34 7 -27 23
-366 100 -575 131 -36 5 -72 12 -80 15 -8 3 -66 12 -130 20 -63 8 -128 19
-145 24 -16 5 -61 11 -100 15 -38 3 -83 8 -98 11 -18 3 -26 1 -22 -6 3 -5 14
-10 24 -10 9 0 22 -5 29 -12 7 -7 12 -8 12 -2 0 5 5 2 10 -6 6 -10 10 -11 10
-2 0 6 5 12 11 12 5 0 8 -4 4 -10 -3 -5 14 -14 37 -20 24 -6 49 -13 57 -16 14
-5 114 -27 432 -99 108 -25 207 -49 221 -54 14 -5 40 -12 59 -15 57 -9 342
-110 493 -176 50 -21 105 -38 286 -86 83 -22 110 -25 210 -21 147 5 196 26
323 141 51 45 125 108 165 139 85 68 113 115 120 204 2 35 5 63 6 63 35 12 87
7 153 -13 390 -123 834 -114 1393 29 223 57 292 73 306 67 6 -2 15 27 23 76 6
44 25 134 41 200 74 303 87 407 95 786 3 138 7 286 9 330 2 44 2 70 -1 57 -6
-31 -31 -78 -39 -74 -4 2 -12 -6 -18 -16 -6 -11 -31 -53 -56 -93 -25 -41 -48
-82 -52 -92 -4 -9 -14 -20 -23 -23 -8 -4 -15 -14 -15 -23 0 -9 -14 -39 -30
-65 -17 -26 -36 -67 -42 -90 -9 -33 -18 -45 -40 -54 -16 -6 -32 -20 -35 -31
-3 -12 -9 -21 -14 -21 -5 0 -9 -4 -9 -10 0 -5 10 -10 22 -10 l22 0 -22 -16
c-15 -10 -21 -22 -17 -34 4 -12 -1 -19 -15 -23 -11 -3 -20 -10 -20 -16 0 -9 6
-8 23 0 20 11 21 11 8 -5 -8 -9 -21 -14 -31 -11 -9 3 -23 -2 -30 -10 -11 -13
-10 -15 6 -9 12 4 8 -3 -11 -19 -25 -21 -32 -23 -45 -12 -18 16 -38 0 -34 -27
1 -10 -3 -21 -9 -27 -12 -9 -18 -11 -38 -11 -5 0 -7 -5 -4 -11 4 -6 -2 -5 -14
3 -12 7 -21 18 -21 25 0 9 -19 13 -65 13 -58 0 -65 -2 -65 -20 0 -15 -7 -20
-29 -20 -16 0 -31 -5 -33 -11 -2 -6 -26 -14 -53 -17 l-50 -6 40 -7 c24 -4 -14
-7 -92 -8 -123 -1 -133 -2 -133 -20 0 -17 -11 -20 -127 -26 -71 -3 -132 -7
-138 -7 -17 -2 -46 14 -77 42 -17 15 -60 45 -97 66 -43 25 -108 80 -187 159
-155 155 -389 368 -414 377 -11 4 -20 12 -20 19 0 6 -7 9 -14 6 -11 -4 -13 -1
-9 10 4 10 2 14 -5 9 -6 -3 -19 5 -29 20 -33 48 -76 95 -81 90 -8 -8 -55 35
-391 363 -352 343 -446 447 -473 524 -14 42 -17 46 -18 24 0 -16 4 -36 9 -45
14 -27 2 -72 -20 -72 -23 0 -94 88 -125 155 -64 139 -53 398 17 436 16 8 21 5
28 -13 12 -32 31 -138 31 -175 0 -17 7 -55 16 -84 9 -30 19 -65 23 -78 4 -13
7 56 7 155 0 214 19 328 94 555 69 210 180 422 394 754 225 349 319 520 415
761 93 233 119 333 149 570 l18 140 -47 58 c-72 90 -103 159 -103 236 0 93 32
148 134 230 l79 63 -34 38 c-43 48 -106 180 -135 283 -42 150 -27 329 35 410
86 114 220 119 332 13 102 -96 165 -306 142 -472 -4 -33 -6 -61 -5 -63 2 -2
31 4 64 12 96 25 221 18 345 -20 15 -5 17 5 17 108 0 62 7 145 15 183 28 135
125 285 221 341 58 34 155 64 208 64 51 0 139 -25 159 -45 8 -8 17 -12 20 -9
2 3 12 -10 21 -28 30 -58 42 -77 59 -96 10 -10 17 -26 17 -36 0 -9 4 -15 9
-11 6 3 10 -3 10 -12 -1 -10 7 -38 16 -63 10 -25 17 -61 17 -81 1 -62 -14
-174 -24 -186 -5 -7 -16 -35 -23 -63 -23 -86 -92 -185 -161 -231 l-27 -18 95
-44 c53 -25 100 -51 104 -59 5 -8 -2 -6 -19 5 -15 10 -27 13 -27 7 0 -6 -5 -8
-11 -4 -14 8 -69 -45 -69 -67 0 -9 -7 -22 -15 -29 -8 -7 -15 -17 -15 -22 0
-26 -153 -188 -177 -188 -7 0 -13 -4 -13 -10 0 -5 -7 -10 -16 -10 -9 0 -12 -5
-8 -12 4 -7 4 -10 -1 -6 -4 4 -21 0 -38 -8 -16 -9 -66 -22 -111 -30 -125 -21
-165 -31 -241 -60 -38 -14 -128 -46 -200 -70 -170 -59 -195 -57 -450 31 -11 4
-4 -3 15 -16 19 -12 78 -38 130 -56 52 -18 91 -33 85 -33 -5 0 -3 -5 5 -10 13
-8 12 -10 -5 -11 -11 -1 -23 -1 -27 0 -14 2 -8 -34 11 -72 40 -78 158 -153
260 -165 l56 -7 -60 -5 c-44 -4 -55 -8 -40 -14 30 -12 73 -31 140 -61 33 -15
78 -31 100 -35 22 -4 73 -15 113 -24 92 -20 196 -20 287 0 39 8 86 17 105 20
41 7 93 31 127 59 52 43 143 138 143 149 1 6 22 -45 49 -114 93 -240 222 -511
436 -910 236 -441 343 -666 403 -850 86 -260 128 -607 103 -845 -11 -96 -39
-248 -57 -310 -4 -11 8 0 26 25 41 56 81 93 146 135 58 38 163 75 208 74 l31
0 -35 -16 c-19 -8 -42 -19 -50 -24 -8 -5 -24 -13 -35 -18 -12 -5 -27 -16 -34
-25 -7 -9 -19 -16 -26 -16 -15 0 -135 -130 -135 -147 0 -6 -4 -13 -8 -15 -4
-1 -27 -42 -51 -90 -24 -49 -47 -85 -52 -82 -15 9 -10 -23 15 -88 59 -159 113
-230 210 -278 22 -11 37 -20 32 -20 -4 0 9 -19 30 -42 40 -45 168 -131 178
-121 3 4 6 0 6 -7 0 -7 3 -11 6 -7 4 3 27 -4 53 -17 59 -30 94 -36 211 -35 52
0 105 0 117 0 12 -1 25 4 28 9 3 6 17 10 31 10 13 0 24 4 24 8 0 5 27 21 60
36 33 15 60 33 60 39 0 6 3 7 6 4 4 -3 16 -1 28 5 11 6 35 14 51 18 17 4 29
12 27 19 -3 15 19 38 38 38 8 0 50 4 92 8 l78 8 6 -31 c4 -18 13 -37 20 -43 8
-6 14 -17 14 -24 0 -8 11 -22 24 -32 13 -10 52 -55 86 -100 33 -45 72 -91 85
-101 13 -11 22 -22 19 -25 -3 -3 4 -8 15 -12 12 -3 19 -10 16 -15 -3 -5 3 -15
13 -22 10 -7 31 -31 47 -53 17 -22 49 -60 73 -84 44 -45 55 -89 21 -83 -42 6
-69 -17 -105 -93 -20 -41 -39 -73 -44 -70 -4 3 -14 -5 -23 -18 -24 -36 -132
-147 -143 -147 -6 0 -19 -8 -30 -18 -46 -42 -112 -92 -121 -92 -5 0 -17 -8
-26 -18 -9 -10 -37 -29 -62 -41 -26 -13 -51 -31 -58 -42 -6 -10 -17 -19 -23
-19 -7 0 -27 -14 -45 -31 -19 -18 -51 -43 -72 -56 -21 -13 -54 -39 -74 -58
-20 -19 -51 -41 -68 -50 -18 -8 -38 -21 -45 -30 -7 -8 -18 -15 -24 -15 -6 0
-16 -8 -22 -17 -7 -10 -29 -27 -50 -38 -22 -11 -41 -22 -44 -25 -3 -3 -39 -32
-80 -63 -41 -32 -87 -69 -103 -82 -15 -14 -33 -25 -41 -25 -7 0 -26 -12 -42
-27 -16 -15 -32 -28 -36 -28 -4 0 -18 -9 -30 -20 -26 -23 -97 -66 -148 -91
-39 -18 -39 -18 -127 -71 -35 -21 -63 -40 -63 -44 0 -4 -13 -10 -30 -14 -16
-4 -30 -11 -30 -16 0 -5 -11 -9 -24 -9 -14 0 -28 -5 -31 -10 -5 -8 -11 -8 -20
0 -7 6 -32 10 -56 9 -24 -1 -68 1 -97 4 -32 4 -50 2 -47 -4 4 -5 2 -9 -3 -9
-6 0 -13 7 -16 16 -3 8 -10 13 -15 10 -5 -4 -12 -1 -14 4 -4 7 -5 6 -3 -1 1
-6 5 -10 10 -9 4 1 13 -5 19 -13 15 -19 83 -41 98 -31 7 4 9 3 6 -4 -5 -6 27
-16 89 -27 168 -31 343 -8 475 61 83 44 88 47 326 240 109 88 245 196 303 239
58 43 107 82 110 86 3 3 128 89 279 190 150 101 283 190 295 198 256 173 316
235 316 324 0 58 -25 100 -106 178 -241 232 -346 340 -379 393 -52 81 -92 198
-106 304 -11 84 -13 89 -40 99 -17 7 -33 23 -39 40 -5 15 -14 35 -18 43 -5 8
-8 27 -8 41 1 21 -2 25 -20 21 -12 -2 -24 1 -28 6 -4 6 3 8 16 6 16 -4 14 -1
-7 9 -16 8 -47 17 -68 21 -36 7 -37 9 -32 39 3 18 6 48 8 69 1 20 5 34 9 32 9
-6 21 33 13 45 -3 6 3 14 12 20 15 9 15 10 2 11 -13 0 -14 10 -8 63 21 177 41
312 47 317 4 3 7 30 8 60 0 30 3 84 5 120 3 36 2 77 -2 93 -4 15 -4 27 1 27 5
0 10 15 12 33 2 22 7 6 16 -51 16 -99 17 -306 2 -381 -5 -30 -8 -57 -5 -59 3
-3 5 -3 5 0 0 3 5 30 10 59 14 71 14 287 0 374 -6 39 -20 108 -32 155 -12 47
-21 91 -21 98 0 6 -5 12 -10 12 -5 0 -7 6 -4 14 3 8 3 17 -1 20 -3 4 -7 16 -9
28 -4 26 -61 154 -122 273 -25 50 -46 96 -47 103 -2 7 -20 41 -42 75 -52 82
-132 217 -132 222 0 8 -112 189 -130 210 -10 11 -43 64 -74 117 -66 114 -264
418 -281 433 -27 23 -415 589 -415 605 0 5 -4 10 -9 12 -10 4 -149 261 -202
373 -20 44 -39 94 -42 110 -3 17 -10 49 -16 71 -37 135 -44 239 -51 754 -7
576 -12 623 -85 820 -20 52 -38 104 -40 114 -6 28 -82 156 -113 192 -64 75
-72 84 -71 90 1 9 -54 64 -64 64 -6 0 -24 14 -41 30 -49 49 -58 55 -119 94
-118 76 -299 144 -464 176 -122 24 -433 40 -433 23z m-950 -940 c-11 -17 -11
-17 -6 0 3 10 7 26 7 35 1 15 2 15 6 0 2 -10 -1 -25 -7 -35z m-16 -67 c-3 -21
-8 -35 -11 -32 -2 2 -1 20 3 40 3 21 8 35 11 32 2 -2 1 -20 -3 -40z m2103
-1738 c23 -26 29 -41 49 -116 29 -109 14 -136 -46 -86 -76 64 -109 224 -47
224 13 0 33 -10 44 -22z m-2417 -568 c0 -5 -5 -10 -11 -10 -5 0 -7 5 -4 10 3
6 8 10 11 10 2 0 4 -4 4 -10z m-29 -43 c-10 -9 -11 -8 -5 6 3 10 9 15 12 12 3
-3 0 -11 -7 -18z m-35 -55 c-17 -16 -18 -16 -5 5 7 12 15 20 18 17 3 -2 -3
-12 -13 -22z m-115 -215 c-10 -9 -11 -8 -5 6 3 10 9 15 12 12 3 -3 0 -11 -7
-18z m-94 -159 c-3 -8 -6 -5 -6 6 -1 11 2 17 5 13 3 -3 4 -12 1 -19z m-266
-461 c-10 -9 -11 -8 -5 6 3 10 9 15 12 12 3 -3 0 -11 -7 -18z m3744 -420 c60
-62 114 -154 145 -247 25 -72 30 -194 10 -244 l-11 -30 -24 25 c-24 25 -147
294 -184 406 -21 62 -27 123 -14 136 14 14 28 5 78 -46z m1102 -479 c-3 -8 -6
-5 -6 6 -1 11 2 17 5 13 3 -3 4 -12 1 -19z m10 -40 c-3 -8 -6 -5 -6 6 -1 11 2
17 5 13 3 -3 4 -12 1 -19z m-4948 -852 c17 -19 20 -26 9 -32 -7 -4 -10 -3 -5
1 4 5 -3 19 -15 32 -12 13 -19 23 -16 23 2 0 15 -11 27 -24z m1011 -671 c13
-14 21 -25 18 -25 -2 0 -15 11 -28 25 -13 14 -21 25 -18 25 2 0 15 -11 28 -25z
m1655 -675 c3 -5 1 -10 -4 -10 -6 0 -11 5 -11 10 0 6 2 10 4 10 3 0 8 -4 11
-10z m-105 -74 c0 -2 -7 -7 -16 -10 -8 -3 -12 -2 -9 4 6 10 25 14 25 6z
m-2605 -876 c3 -6 -1 -7 -9 -4 -18 7 -21 14 -7 14 6 0 13 -4 16 -10z m3500
-270 c-3 -5 -14 -10 -23 -10 -15 0 -15 2 -2 10 20 13 33 13 25 0z"/>
<path d="M5382 10959 c-35 -11 -62 -22 -60 -24 2 -2 37 7 78 20 41 13 68 23
60 24 -8 0 -44 -9 -78 -20z"/>
<path d="M5285 10920 c-3 -6 1 -7 9 -4 18 7 21 14 7 14 -6 0 -13 -4 -16 -10z"/>
<path d="M5200 10880 c-9 -6 -10 -10 -3 -10 6 0 15 5 18 10 8 12 4 12 -15 0z"/>
<path d="M5059 10793 c-13 -16 -12 -17 4 -4 9 7 17 15 17 17 0 8 -8 3 -21 -13z"/>
<path d="M5019 10763 c-13 -16 -12 -17 4 -4 16 13 21 21 13 21 -2 0 -10 -8
-17 -17z"/>
<path d="M4949 10703 l-34 -38 38 34 c20 19 37 36 37 38 0 8 -8 0 -41 -34z"/>
<path d="M4856 10592 l-19 -27 24 22 c12 12 21 24 18 27 -2 2 -13 -8 -23 -22z"/>
<path d="M4815 10534 c-9 -15 -12 -23 -6 -20 11 7 35 46 28 46 -3 0 -12 -12
-22 -26z"/>
<path d="M4772 10473 c-26 -38 -34 -53 -29 -53 2 0 16 18 31 40 29 45 28 56
-2 13z"/>
<path d="M4690 10219 c0 -5 5 -7 10 -4 6 3 10 8 10 11 0 2 -4 4 -10 4 -5 0
-10 -5 -10 -11z"/>
<path d="M4661 10188 c-5 -14 -4 -32 2 -46 10 -22 11 -22 24 9 17 42 16 60 -2
29 l-15 -25 6 28 c7 33 -3 36 -15 5z"/>
<path d="M5960 9474 c-32 -15 -33 -17 -15 -24 14 -6 15 -9 5 -10 -8 -1 0 -6
19 -12 l33 -9 -78 -79 c-58 -58 -84 -77 -101 -75 -15 1 -23 -3 -23 -13 0 -12
-3 -13 -11 -5 -8 8 -5 22 10 52 12 22 19 41 16 41 -4 0 -18 -26 -33 -57 -20
-46 -27 -78 -30 -148 l-4 -90 147 -50 147 -50 29 35 c61 73 99 189 99 305 0
95 -27 151 -90 183 -52 26 -72 27 -120 6z m50 -368 c0 -31 -14 -40 -30 -21
-15 18 -6 45 15 45 9 0 15 -9 15 -24z"/>
<path d="M4898 9455 c-14 -8 -37 -32 -50 -52 -20 -33 -23 -51 -23 -128 0 -80
4 -97 32 -155 34 -72 71 -125 103 -147 19 -14 24 -13 58 10 20 13 54 34 74 46
28 17 39 31 44 58 9 48 -2 183 -18 219 -59 135 -142 191 -220 149z m42 -69 c0
-19 -4 -37 -9 -40 -5 -3 -14 -25 -20 -49 -10 -41 -35 -76 -47 -65 -2 3 -8 25
-13 49 -6 34 -4 52 11 81 31 64 78 78 78 24z m120 -259 c0 -30 -10 -40 -27
-26 -20 18 -16 49 7 49 14 0 20 -7 20 -23z"/>
<path d="M5859 9403 c-13 -16 -12 -17 4 -4 9 7 17 15 17 17 0 8 -8 3 -21 -13z"/>
<path d="M5482 9013 c4 -22 108 -65 125 -51 9 7 9 16 1 33 -12 26 -34 35 -91
35 -31 0 -38 -3 -35 -17z"/>
<path d="M5211 9007 c-31 -15 -37 -33 -14 -41 9 -4 14 -4 10 0 -4 4 3 18 15
31 24 26 23 28 -11 10z"/>
<path d="M3480 6329 c0 -5 5 -7 10 -4 6 3 10 8 10 11 0 2 -4 4 -10 4 -5 0 -10
-5 -10 -11z"/>
<path d="M3458 6288 c-8 -13 -20 -34 -27 -48 -11 -24 -11 -24 3 -6 9 11 16 24
16 29 0 4 6 5 13 1 6 -4 9 -4 5 1 -4 4 -3 16 3 26 14 26 4 24 -13 -3z"/>
<path d="M3385 6149 c-4 -6 -5 -12 -2 -15 2 -3 7 2 10 11 7 17 1 20 -8 4z"/>
<path d="M3337 6055 c-9 -19 -15 -35 -12 -35 7 0 37 61 33 66 -3 2 -12 -12
-21 -31z"/>
<path d="M3262 5905 c-17 -37 -14 -45 4 -12 9 16 14 31 11 33 -2 2 -9 -7 -15
-21z"/>
<path d="M3151 5514 c0 -11 3 -14 6 -6 3 7 2 16 -1 19 -3 4 -6 -2 -5 -13z"/>
<path d="M3141 5454 c0 -11 3 -14 6 -6 3 7 2 16 -1 19 -3 4 -6 -2 -5 -13z"/>
<path d="M3132 5375 c0 -16 2 -22 5 -12 2 9 2 23 0 30 -3 6 -5 -1 -5 -18z"/>
<path d="M3752 5305 c0 -16 2 -22 5 -12 2 9 2 23 0 30 -3 6 -5 -1 -5 -18z"/>
<path d="M8611 5254 c0 -11 3 -14 6 -6 3 7 2 16 -1 19 -3 4 -6 -2 -5 -13z"/>
<path d="M8591 5193 c-1 -6 -4 -20 -7 -30 -5 -17 -5 -17 6 0 6 10 9 23 6 30
-3 9 -5 9 -5 0z"/>
<path d="M3132 5120 c0 -14 2 -19 5 -12 2 6 2 18 0 25 -3 6 -5 1 -5 -13z"/>
<path d="M8566 5124 c-8 -20 -8 -24 2 -24 4 0 8 9 9 20 2 24 -3 26 -11 4z"/>
<path d="M3531 5063 c-1 -17 16 -25 25 -12 4 7 3 9 -4 5 -5 -3 -13 0 -15 6 -4
9 -6 10 -6 1z"/>
<path d="M8668 4383 c6 -2 18 -2 25 0 6 3 1 5 -13 5 -14 0 -19 -2 -12 -5z"/>
<path d="M6486 3781 c-4 -7 -5 -15 -2 -18 9 -9 19 4 14 18 -4 11 -6 11 -12 0z"/>
</g>
</svg>
